<svg width="72" height="72" viewBox="0 0 72 72" fill="none" xmlns="http://www.w3.org/2000/svg">
<g clip-path="url(#clip0_1_5793)">
<rect width="1440" height="7499" transform="translate(-868 -4126)" fill="white"/>
<g filter="url(#filter0_d_1_5793)">
<rect x="-34" y="-547" width="506" height="509" fill="#131313"/>
</g>
<g filter="url(#filter1_d_1_5793)">
<circle cx="36" cy="36" r="36" fill="#E3B873"/>
</g>
<path d="M36.3396 43.2782C35.9614 43.2782 35.6526 43.5775 35.6526 43.9493V45.2739C35.6526 45.6457 35.9614 45.9449 36.3396 45.9449C36.7178 45.9449 37.0265 45.6457 37.0265 45.2739V43.9493C37.0265 43.5775 36.7178 43.2782 36.3396 43.2782Z" fill="white" stroke="white" stroke-width="0.1"/>
<path d="M53.0581 34.0004L53.0581 34.0004C52.6069 31.8425 51.5951 29.8085 50.1321 28.1178C48.7237 26.4902 46.9214 25.2089 44.9118 24.4013C44.5828 23.0653 43.8927 21.6877 42.5386 20.6503C41.2205 19.6405 39.8931 19.4459 39.8338 19.4375L39.8338 19.4375C39.6374 19.4102 39.4377 19.4672 39.2872 19.5945C39.1366 19.7218 39.0498 19.9068 39.0498 20.1018V23.4054H36.8254C36.236 21.4913 34.4142 20.0933 32.2634 20.0933C30.0652 20.0933 28.2096 21.5532 27.6632 23.5323C24.5152 23.9581 21.6197 25.4488 19.4692 27.7623L19.5017 27.7924L19.4692 27.7623C17.2 30.2038 15.95 33.3646 15.95 36.6624C15.95 44.0521 19.8839 50.0623 21.0891 51.7278C21.4705 52.2549 22.0945 52.5691 22.7582 52.5691H25.4692C26.5961 52.5691 27.515 51.675 27.515 50.5732V49.7716C28.1849 49.8693 28.8649 49.9194 29.5457 49.9194H35.6528V50.5732C35.6528 51.675 36.5717 52.5691 37.6986 52.5691H40.6765C41.634 52.5691 42.4756 51.9067 42.6767 50.9917L42.9969 49.5352C47.173 48.5336 50.5324 45.6771 52.1959 41.9705H54.6837C55.4359 41.9705 56.05 41.3736 56.05 40.6371V35.3377C56.05 34.981 55.9075 34.6458 55.6493 34.3941C55.3912 34.1425 55.0482 34.0041 54.6838 34.0041H54.6837H54.6837H54.6837H54.6836H54.6836H54.6836H54.6835L53.0592 34.0043C53.0587 34.003 53.0584 34.0017 53.0581 34.0004ZM54.6762 40.5869H54.6761V40.6284H52.7111C53.0469 39.5848 53.2538 38.4889 53.3138 37.3596C53.3337 36.9883 53.0411 36.6738 52.6633 36.6547C52.2857 36.636 51.9615 36.9187 51.9418 37.29C51.6746 42.3126 48.1861 46.6062 43.3218 48.0564L44.1936 44.0901C44.2736 43.7265 44.0358 43.3704 43.6656 43.2931C43.2961 43.2156 42.9301 43.4453 42.8503 43.8084L41.3334 50.7099C41.2678 51.0085 40.9919 51.227 40.6765 51.227H37.6984C37.3268 51.227 37.0266 50.9325 37.0266 50.5732V47.9235C37.0266 47.5517 36.7178 47.2524 36.3396 47.2524C35.9614 47.2524 35.6527 47.5517 35.6527 47.9235V48.5773H29.5455C28.8637 48.5773 28.1831 48.5213 27.5148 48.4125V43.949C27.5148 43.5772 27.2061 43.278 26.8279 43.278C26.4497 43.278 26.1409 43.5772 26.1409 43.949V50.5732C26.1409 50.9325 25.8407 51.2271 25.4691 51.2271H22.7582C22.5355 51.2271 22.3366 51.127 22.2111 50.9533L22.2111 50.9533C21.0641 49.3681 17.3239 43.6542 17.3239 36.6624C17.3239 33.699 18.4469 30.8586 20.4864 28.6645C22.3401 26.67 24.8092 25.3559 27.5037 24.9137C27.5187 25.3017 27.5834 25.6852 27.695 26.055H27.5074C27.1292 26.055 26.8205 26.3542 26.8205 26.726C26.8205 27.0978 27.1292 27.3971 27.5074 27.3971H37.0191C37.3974 27.3971 37.7061 27.0978 37.7061 26.726C37.7061 26.3542 37.3974 26.055 37.0191 26.055H36.8315C36.9592 25.6325 37.0258 25.192 37.0266 24.7474H39.0498V26.0636C39.0498 26.4354 39.3585 26.7346 39.7367 26.7346C40.1149 26.7346 40.4237 26.4354 40.4237 26.0636V20.9896C41.0183 21.2188 41.843 21.6672 42.5288 22.5227C43.2404 23.4102 43.8056 24.7396 43.8056 26.7261C43.8056 27.0979 44.1144 27.3971 44.4926 27.3971C44.8708 27.3971 45.1795 27.0979 45.1795 26.7261C45.1795 26.4882 45.1716 26.2384 45.1536 25.9805C46.6527 26.7054 47.9978 27.7305 49.0829 28.9844C50.3977 30.5038 51.3068 32.3312 51.712 34.269C51.8426 34.8939 52.4049 35.3465 53.0487 35.3464L54.6762 35.3463V40.5869ZM32.2633 21.4354C34.1334 21.4354 35.6527 22.9186 35.6527 24.7389C35.6527 25.1938 35.5552 25.642 35.371 26.0552H29.1555C28.9714 25.6419 28.8737 25.1938 28.8737 24.7389C28.8737 22.9185 30.3931 21.4354 32.2633 21.4354Z" fill="white" stroke="white" stroke-width="0.1"/>
<path d="M43.9116 34.4405L43.9116 34.4405C44.315 33.3857 45.3808 32.6794 46.5621 32.6794C47.7433 32.6794 48.8093 33.3858 49.2125 34.4405L43.9116 34.4405ZM43.9116 34.4405C43.7784 34.7888 43.9605 35.1751 44.3155 35.3041M43.9116 34.4405L44.3155 35.3041M44.3155 35.3041C44.67 35.4331 45.0657 35.2577 45.1986 34.9101L44.3155 35.3041ZM45.1986 34.91C45.4011 34.3805 45.9479 34.0214 46.562 34.0214C47.1761 34.0214 47.723 34.3805 47.9255 34.9101C48.0289 35.1805 48.2913 35.3464 48.5691 35.3464C48.6488 35.3464 48.7297 35.3328 48.8086 35.3041C48.8086 35.3041 48.8086 35.3041 48.8086 35.3041L48.7915 35.2571L45.1986 34.91Z" fill="white" stroke="white" stroke-width="0.1"/>
<path d="M35.2116 37.0757C34.5601 36.6339 33.7201 36.3632 32.9502 36.1509V33.072C33.5451 33.1491 34.0484 33.3214 34.4047 33.5342C34.7758 33.7558 34.9733 34.0121 34.9733 34.2406C34.9733 34.6124 35.2821 34.9116 35.6603 34.9116C36.0385 34.9116 36.3472 34.6124 36.3472 34.2406C36.3472 33.585 35.9732 32.9989 35.3589 32.5557C34.754 32.1193 33.9127 31.8182 32.9502 31.7204V31.6944C32.9502 31.3226 32.6414 31.0234 32.2632 31.0234C31.885 31.0234 31.5763 31.3226 31.5763 31.6944V31.7204C30.6138 31.8182 29.7724 32.1193 29.1676 32.5557C28.5533 32.9989 28.1792 33.585 28.1792 34.2406C28.1792 35.1681 28.6508 35.799 29.3149 36.2494C29.9663 36.6912 30.8063 36.9619 31.5763 37.1742V40.2531C30.9814 40.176 30.4781 40.0037 30.1218 39.7909C29.7506 39.5693 29.5532 39.313 29.5532 39.0845C29.5532 38.7127 29.2444 38.4135 28.8662 38.4135C28.488 38.4135 28.1792 38.7127 28.1792 39.0845C28.1792 39.7401 28.5533 40.3262 29.1676 40.7694C29.7724 41.2058 30.6138 41.5069 31.5763 41.6047V41.6307C31.5763 42.0025 31.885 42.3017 32.2632 42.3017C32.6414 42.3017 32.9502 42.0025 32.9502 41.6307V41.6047C33.9127 41.5069 34.754 41.2058 35.3589 40.7694C35.9732 40.3262 36.3472 39.7401 36.3472 39.0845C36.3472 38.157 35.8757 37.5261 35.2116 37.0757ZM31.5763 33.072V35.7681C30.8286 35.5358 30.3248 35.3146 30.0067 35.0733C29.6827 34.8275 29.5532 34.5627 29.5532 34.2406C29.5532 34.0121 29.7506 33.7558 30.1218 33.5342C30.4781 33.3214 30.9814 33.1491 31.5763 33.072ZM34.4047 39.791C34.0484 40.0038 33.545 40.1761 32.9502 40.2532V37.557C33.6979 37.7893 34.2016 38.0105 34.5198 38.2519C34.8437 38.4976 34.9733 38.7625 34.9733 39.0846C34.9733 39.3131 34.7758 39.5694 34.4047 39.791Z" fill="white" stroke="white" stroke-width="0.1"/>
</g>
<defs>
<filter id="filter0_d_1_5793" x="-64" y="-547" width="566" height="569" filterUnits="userSpaceOnUse" color-interpolation-filters="sRGB">
<feFlood flood-opacity="0" result="BackgroundImageFix"/>
<feColorMatrix in="SourceAlpha" type="matrix" values="0 0 0 0 0 0 0 0 0 0 0 0 0 0 0 0 0 0 127 0" result="hardAlpha"/>
<feOffset dy="30"/>
<feGaussianBlur stdDeviation="15"/>
<feColorMatrix type="matrix" values="0 0 0 0 0 0 0 0 0 0 0 0 0 0 0 0 0 0 0.05 0"/>
<feBlend mode="normal" in2="BackgroundImageFix" result="effect1_dropShadow_1_5793"/>
<feBlend mode="normal" in="SourceGraphic" in2="effect1_dropShadow_1_5793" result="shape"/>
</filter>
<filter id="filter1_d_1_5793" x="-20" y="-10" width="112" height="112" filterUnits="userSpaceOnUse" color-interpolation-filters="sRGB">
<feFlood flood-opacity="0" result="BackgroundImageFix"/>
<feColorMatrix in="SourceAlpha" type="matrix" values="0 0 0 0 0 0 0 0 0 0 0 0 0 0 0 0 0 0 127 0" result="hardAlpha"/>
<feOffset dy="10"/>
<feGaussianBlur stdDeviation="10"/>
<feColorMatrix type="matrix" values="0 0 0 0 0.929412 0 0 0 0 0.752941 0 0 0 0 0.470588 0 0 0 0.2 0"/>
<feBlend mode="normal" in2="BackgroundImageFix" result="effect1_dropShadow_1_5793"/>
<feBlend mode="normal" in="SourceGraphic" in2="effect1_dropShadow_1_5793" result="shape"/>
</filter>
<clipPath id="clip0_1_5793">
<rect width="1440" height="7499" fill="white" transform="translate(-868 -4126)"/>
</clipPath>
</defs>
</svg>
